<?xml version="1.0" encoding="UTF-8" standalone="no"?>
<!-- Created with Inkscape (http://www.inkscape.org/) -->

<svg
   xmlns:dc="http://purl.org/dc/elements/1.1/"
   xmlns:cc="http://creativecommons.org/ns#"
   xmlns:rdf="http://www.w3.org/1999/02/22-rdf-syntax-ns#"
   xmlns:svg="http://www.w3.org/2000/svg"
   xmlns="http://www.w3.org/2000/svg"
   xmlns:sodipodi="http://sodipodi.sourceforge.net/DTD/sodipodi-0.dtd"
   xmlns:inkscape="http://www.inkscape.org/namespaces/inkscape"
   width="210mm"
   height="297mm"
   viewBox="0 0 210 297"
   version="1.1"
   id="svg8"
   inkscape:version="0.92.4 (5da689c313, 2019-01-14)"
   sodipodi:docname="przejscia.svg">
  <defs
     id="defs2" />
  <sodipodi:namedview
     id="base"
     pagecolor="#ffffff"
     bordercolor="#666666"
     borderopacity="1.0"
     inkscape:pageopacity="0.0"
     inkscape:pageshadow="2"
     inkscape:zoom="0.064980192"
     inkscape:cx="1888.5217"
     inkscape:cy="990.89191"
     inkscape:document-units="mm"
     inkscape:current-layer="layer1"
     showgrid="false"
     inkscape:window-width="1920"
     inkscape:window-height="986"
     inkscape:window-x="-11"
     inkscape:window-y="-11"
     inkscape:window-maximized="1" />
  <metadata
     id="metadata5">
    <rdf:RDF>
      <cc:Work
         rdf:about="">
        <dc:format>image/svg+xml</dc:format>
        <dc:type
           rdf:resource="http://purl.org/dc/dcmitype/StillImage" />
        <dc:title></dc:title>
      </cc:Work>
    </rdf:RDF>
  </metadata>
  <g
     inkscape:label="Layer 1"
     inkscape:groupmode="layer"
     id="layer1">
    <path
       style="fill:#a1606e;fill-opacity:0.81568627;stroke-width:3.62353659"
       d="m -1345.1732,-1175.1497 -306.148,1.1667 89.5343,9.8418 c 947.82874,104.1875 1833.44962,195.89406 3483.1529,360.68266 1165.1582,116.3874 1927.084,192.9894 2017.4105,202.8251 18.2746,1.9899 35.1705,2.8534 37.5466,1.9188 2.3759,-0.9345 5.1066,-130.8378 6.0682,-288.6741 l 1.7487,-286.97496 -1876.1813,-1.514 c -1918.63863,-1.5484 -2910.69622,-1.3392 -3453.1312,0.7276 z"
       id="path4545"
       inkscape:connector-curvature="0" />
    <path
       inkscape:connector-curvature="0"
       id="path4549"
       d="m 3685.4397,-596.00844 307.0435,-1.1667 -89.7962,-9.8418 C 2952.0854,-711.20444 2063.8736,-802.91105 409.34401,-967.69966 -759.22283,-1084.0871 -1523.3777,-1160.6891 -1613.9684,-1170.5248 c -18.3281,-1.9899 -35.2735,-2.8534 -37.6565,-1.9188 -2.3828,0.9345 -5.1215,130.8378 -6.0859,288.67415 l -1.7539,286.97501 1881.67013,1.514 c 1924.25157,1.5484 2919.21167,1.3392 3463.23347,-0.7276 z"
       style="fill:#e4a1a6;fill-opacity:0.81568627;stroke-width:3.62883306" />
  </g>
</svg>
